HIERARCHY
ROOT hip
{
  OFFSET 0 0 0
  CHANNELS 6 Xposition Yposition Zposition Zrotation Yrotation Xrotation
  JOINT abdomen
  {
    OFFSET 0 20.6881 -0.73152
    CHANNELS 3 Zrotation Xrotation Yrotation
    JOINT chest
    {
      OFFSET 0 11.7043 -0.48768
      CHANNELS 3 Zrotation Xrotation Yrotation
      JOINT neck
      {
        OFFSET 0 22.1894 -2.19456
        CHANNELS 3 Zrotation Xrotation Yrotation
        JOINT head
        {
          OFFSET -0.24384 7.07133 1.2192
          CHANNELS 3 Zrotation Xrotation Yrotation
          JOINT leftEye
          {
            OFFSET 4.14528 8.04674 8.04672
            CHANNELS 3 Zrotation Xrotation Yrotation
            End Site
            {
              OFFSET 1 0 0
            }
          }
          JOINT rightEye
          {
            OFFSET -3.6576 8.04674 8.04672
            CHANNELS 3 Zrotation Xrotation Yrotation
            End Site
            {
              OFFSET 1 0 0
            }
          }
        }
      }
      JOINT rCollar
      {
        OFFSET -2.68224 19.2634 -4.8768
        CHANNELS 3 Zrotation Xrotation Yrotation
        JOINT rShldr
        {
          OFFSET -8.77824 -1.95073 1.46304
          CHANNELS 3 Zrotation Xrotation Yrotation
          JOINT rForeArm
          {
            OFFSET -28.1742 -1.7115 0.48768
            CHANNELS 3 Zrotation Xrotation Yrotation
            JOINT rHand
            {
              OFFSET -22.5879 0.773209 7.07136
              CHANNELS 3 Zrotation Xrotation Yrotation
              JOINT rThumb1
              {
                OFFSET -1.2192 -0.487915 3.41376
                CHANNELS 3 Zrotation Xrotation Yrotation
                JOINT rThumb2
                {
                  OFFSET -3.37035 -0.52449 3.41376
                  CHANNELS 3 Zrotation Xrotation Yrotation
                  End Site
                  {
                    OFFSET -1.78271 -1.18214 1.43049
                  }
                }
              }
              JOINT rIndex1
              {
                OFFSET -7.75947 0.938293 5.60832
                CHANNELS 3 Zrotation Xrotation Yrotation
                JOINT rIndex2
                {
                  OFFSET -2.54057 -0.884171 1.56538
                  CHANNELS 3 Zrotation Xrotation Yrotation
                  End Site
                  {
                    OFFSET -1.62519 -0.234802 1.16502
                  }
                }
              }
              JOINT rMid1
              {
                OFFSET -8.24714 1.18213 3.41376
                CHANNELS 3 Zrotation Xrotation Yrotation
                JOINT rMid2
                {
                  OFFSET -3.10165 -0.590103 1.0647
                  CHANNELS 3 Zrotation Xrotation Yrotation
                  End Site
                  {
                    OFFSET -2.48547 -0.328903 0.83742
                  }
                }
              }
              JOINT rRing1
              {
                OFFSET -8.82822 0.546677 1.51678
                CHANNELS 3 Zrotation Xrotation Yrotation
                JOINT rRing2
                {
                  OFFSET -2.60934 -0.819778 -0.0198488
                  CHANNELS 3 Zrotation Xrotation Yrotation
                  End Site
                  {
                    OFFSET -2.33842 -0.294052 0.168128
                  }
                }
              }
              JOINT rPinky1
              {
                OFFSET -8.27202 -0.0477905 -0.4584
                CHANNELS 3 Zrotation Xrotation Yrotation
                JOINT rPinky2
                {
                  OFFSET -1.82734 -0.647385 -0.700984
                  CHANNELS 3 Zrotation Xrotation Yrotation
                  End Site
                  {
                    OFFSET -1.69225 -0.51767 -0.607171
                  }
                }
              }
            }
          }
        }
      }
      JOINT lCollar
      {
        OFFSET 2.68224 19.2634 -4.8768
        CHANNELS 3 Zrotation Xrotation Yrotation
        JOINT lShldr
        {
          OFFSET 8.77824 -1.95073 1.46304
          CHANNELS 3 Zrotation Xrotation Yrotation
          JOINT lForeArm
          {
            OFFSET 28.1742 -1.7115 0.48768
            CHANNELS 3 Zrotation Xrotation Yrotation
            JOINT lHand
            {
              OFFSET 22.5879 0.773209 7.07136
              CHANNELS 3 Zrotation Xrotation Yrotation
              JOINT lThumb1
              {
                OFFSET 1.2192 -0.487915 3.41376
                CHANNELS 3 Zrotation Xrotation Yrotation
                JOINT lThumb2
                {
                  OFFSET 3.37035 -0.52449 3.41376
                  CHANNELS 3 Zrotation Xrotation Yrotation
                  End Site
                  {
                    OFFSET 1.78271 -1.18214 1.43049
                  }
                }
              }
              JOINT lIndex1
              {
                OFFSET 7.75947 0.938293 5.60832
                CHANNELS 3 Zrotation Xrotation Yrotation
                JOINT lIndex2
                {
                  OFFSET 2.54057 -0.884171 1.56538
                  CHANNELS 3 Zrotation Xrotation Yrotation
                  End Site
                  {
                    OFFSET 1.62519 -0.234802 1.16502
                  }
                }
              }
              JOINT lMid1
              {
                OFFSET 8.24714 1.18213 3.41376
                CHANNELS 3 Zrotation Xrotation Yrotation
                JOINT lMid2
                {
                  OFFSET 3.10165 -0.590103 1.0647
                  CHANNELS 3 Zrotation Xrotation Yrotation
                  End Site
                  {
                    OFFSET 2.48547 -0.328903 0.83742
                  }
                }
              }
              JOINT lRing1
              {
                OFFSET 8.82822 0.546677 1.51678
                CHANNELS 3 Zrotation Xrotation Yrotation
                JOINT lRing2
                {
                  OFFSET 2.60934 -0.819778 -0.0198488
                  CHANNELS 3 Zrotation Xrotation Yrotation
                  End Site
                  {
                    OFFSET 2.33842 -0.294052 0.168128
                  }
                }
              }
              JOINT lPinky1
              {
                OFFSET 8.27202 -0.0477905 -0.4584
                CHANNELS 3 Zrotation Xrotation Yrotation
                JOINT lPinky2
                {
                  OFFSET 1.82734 -0.647385 -0.700984
                  CHANNELS 3 Zrotation Xrotation Yrotation
                  End Site
                  {
                    OFFSET 1.69225 -0.51767 -0.607171
                  }
                }
              }
            }
          }
        }
      }
    }
  }
  JOINT rButtock
  {
    OFFSET -8.77824 4.35084 1.2192
    CHANNELS 3 Zrotation Xrotation Yrotation
    JOINT rThigh
    {
      OFFSET 0 -1.70687 -2.19456
      CHANNELS 3 Zrotation Xrotation Yrotation
      JOINT rShin
      {
        OFFSET 0 -36.8199 0.73152
        CHANNELS 3 Zrotation Xrotation Yrotation
        JOINT rFoot
        {
          OFFSET 0.73152 -45.1104 -5.12064
          CHANNELS 3 Zrotation Xrotation Yrotation
          End Site
          {
            OFFSET -1.1221 -3.69964 12.103
          }
        }
      }
    }
  }
  JOINT lButtock
  {
    OFFSET 8.77824 4.35084 1.2192
    CHANNELS 3 Zrotation Xrotation Yrotation
    JOINT lThigh
    {
      OFFSET 0 -1.70687 -2.19456
      CHANNELS 3 Zrotation Xrotation Yrotation
      JOINT lShin
      {
        OFFSET 0 -36.8199 0.73152
        CHANNELS 3 Zrotation Xrotation Yrotation
        JOINT lFoot
        {
          OFFSET -0.73152 -45.1104 -5.12064
          CHANNELS 3 Zrotation Xrotation Yrotation
          End Site
          {
            OFFSET 1.1221 -3.69964 12.103
          }
        }
      }
    }
  }
}
MOTION
Frames:	4
Frame Time:	0.00833333
58.5224 82.4799 22.2271 177.136 -0.0456 -160.546 -3.16501 -18.3038 -0.168818 4.51538 13.4233 -0.622208 -0.474969 12.1136 -2.66069 3.38153 -3.0142 -2.26356 -0.0 0.0 0.0 -0.0 0.0 0.0 4.09213e-15 3.18017e-15 -1.55549e-14 80.6606 14.7705 -0.0296499 -18.6666 -11.4217 35.5333 -0.119108 -9.79389 -1.39014 2.90477e-10 -6.99769e-10 -6.15246e-11 5.03792e-10 -1.21234e-09 -1.04812e-10 2.90503e-10 -6.99783e-10 -6.15151e-11 7.73091 5.47488 0.417314 2.90475e-10 -6.99771e-10 -6.15215e-11 2.90554 0.965183 0.102902 2.90485e-10 -6.99771e-10 -6.15191e-11 10.2786 0.731801 0.0259123 2.90475e-10 -6.99771e-10 -6.15183e-11 2.22167 -0.733487 -0.20892 3.95891e-15 3.18036e-15 -1.59525e-14 -76.4286 18.1161 -1.19423 8.85291 -3.47283 -15.6672 0.151146 11.0145 -1.56753 3.7799e-10 -7.62729e-11 -4.89274e-10 6.48825e-10 -1.33205e-10 -8.49495e-10 3.77988e-10 -7.6284e-11 -4.89265e-10 -7.73091 5.47488 -0.417314 3.7799e-10 -7.62782e-11 -4.89281e-10 -2.90554 0.965183 -0.102902 3.77983e-10 -7.62789e-11 -4.8928e-10 -10.2786 0.731801 -0.0259123 3.78e-10 -7.62781e-11 -4.89293e-10 -2.22167 -0.733487 0.20892 -2.03217e-16 0.0 -3.88251e-19 7.04835 -30.5682 7.10839 0.0519271 19.2358 0.846908 -2.09896 -15.2753 -5.1658 2.03217e-16 0.0 3.88251e-19 -4.47657 -77.2179 -4.93545 5.34117 80.5673 -5.95202 1.23344 -4.98453 3.61693
58.53 82.5088 21.8364 177.153 0.0551 -160.607 -3.33104 -18.2462 -0.0774818 4.46071 13.3415 -0.589137 -0.617687 12.1531 -2.27787 3.59108 -3.04673 -2.66909 -0.0 0.0 0.0 -0.0 0.0 0.0 -1.60929e-14 -2.49463e-13 -9.6527e-15 80.6068 15.0713 0.0464455 -18.7761 -11.5463 35.785 -0.119548 -9.81065 -1.39257 9.76262e-10 -1.99553e-09 2.40427e-10 1.68941e-09 -3.44889e-09 4.23537e-10 9.76287e-10 -1.99555e-09 2.40433e-10 7.73091 5.47488 0.417314 9.7626e-10 -1.99553e-09 2.40431e-10 2.90554 0.965183 0.102902 9.76271e-10 -1.99553e-09 2.40432e-10 10.2786 0.731801 0.0259123 9.76262e-10 -1.99553e-09 2.40434e-10 2.22167 -0.733487 -0.20892 -1.62312e-14 -2.49462e-13 -1.00301e-14 -76.4985 17.3259 -0.870041 8.70455 -3.38987 -15.3943 0.162113 11.3889 -1.62231 1.74675e-09 -4.83502e-10 -2.14609e-09 2.99619e-09 -8.38613e-10 -3.72483e-09 1.74675e-09 -4.83509e-10 -2.14608e-09 -7.73091 5.47488 -0.417314 1.74675e-09 -4.83504e-10 -2.1461e-09 -2.90554 0.965183 -0.102902 1.74674e-09 -4.83505e-10 -2.1461e-09 -10.2786 0.731801 -0.0259123 1.74676e-09 -4.83505e-10 -2.14611e-09 -2.22167 -0.733487 0.20892 -2.03217e-16 0.0 -3.88251e-19 6.96213 -30.2626 7.2562 0.0561867 19.1332 0.879061 -2.16768 -15.4011 -5.35867 2.03217e-16 0.0 3.88251e-19 -4.95087 -77.7619 -5.42614 4.84884 79.7895 -5.47157 1.23998 -4.9036 3.62696
58.499 82.5387 21.4877 177.003 0.1186 -160.579 -3.52723 -18.1714 0.00911792 4.41609 13.2548 -0.55653 -0.821017 12.2308 -1.71872 3.87575 -3.14218 -3.26853 -0.0 0.0 0.0 -0.0 0.0 0.0 -4.16833e-14 -5.98641e-13 2.82647e-15 80.5575 15.3847 0.0950537 -18.8867 -11.6733 36.0399 -0.1186 -9.77243 -1.38704 1.82748e-09 -3.59092e-09 6.34855e-10 3.16088e-09 -6.2016e-09 1.11362e-09 1.8275e-09 -3.59094e-09 6.34852e-10 7.73091 5.47488 0.417314 1.82748e-09 -3.59092e-09 6.3486e-10 2.90554 0.965183 0.102902 1.82749e-09 -3.59093e-09 6.34859e-10 10.2786 0.731801 0.0259123 1.82748e-09 -3.59093e-09 6.34864e-10 2.22167 -0.733487 -0.20892 -4.18245e-14 -5.9864e-13 2.47238e-15 -76.5421 16.5683 -0.550823 8.58034 -3.32167 -15.1655 0.171289 11.6984 -1.66766 3.52169e-09 -1.03622e-09 -4.32048e-09 6.03894e-09 -1.79543e-09 -7.49838e-09 3.52169e-09 -1.03622e-09 -4.32047e-09 -7.73091 5.47488 -0.417314 3.52169e-09 -1.03622e-09 -4.32048e-09 -2.90554 0.965183 -0.102902 3.52168e-09 -1.03622e-09 -4.32048e-09 -10.2786 0.731801 -0.0259123 3.52169e-09 -1.03622e-09 -4.32049e-09 -2.22167 -0.733487 0.20892 -2.03217e-16 0.0 -3.88251e-19 6.86749 -29.9257 7.45697 0.0598455 18.991 0.907584 -2.24318 -15.5081 -5.58277 2.03217e-16 0.0 3.88251e-19 -5.53011 -78.1967 -6.01852 4.37256 78.8978 -5.00492 1.23739 -4.69831 3.63353
58.4668 82.5711 21.1459 176.864 0.0874 -160.537 -3.72797 -18.0965 0.092013 4.38319 13.1852 -0.525784 -1.03244 12.3073 -1.16194 4.15314 -3.22942 -3.87831 -0.0 0.0 0.0 -0.0 0.0 0.0 -6.0301e-14 -9.08907e-13 1.68742e-14 80.4973 15.6956 0.147416 -18.985 -11.7868 36.2681 -0.117119 -9.71254 -1.37837 2.493e-09 -4.86145e-09 9.7926e-10 4.3112e-09 -8.39301e-09 1.71576e-09 2.49302e-09 -4.86146e-09 9.79249e-10 7.73091 5.47488 0.417314 2.493e-09 -4.86145e-09 9.79266e-10 2.90554 0.965183 0.102902 2.49301e-09 -4.86146e-09 9.79264e-10 10.2786 0.731801 0.0259123 2.493e-09 -4.86146e-09 9.79272e-10 2.22167 -0.733487 -0.20892 -6.04425e-14 -9.08906e-13 1.65465e-14 -76.5799 15.8231 -0.246656 8.46903 -3.26143 -14.9603 0.180217 12.0 -1.71191 4.99748e-09 -1.51926e-09 -6.17171e-09 8.56814e-09 -2.63143e-09 -1.07106e-08 4.99748e-09 -1.51926e-09 -6.1717e-09 -7.73091 5.47488 -0.417314 4.99749e-09 -1.51926e-09 -6.17171e-09 -2.90554 0.965183 -0.102902 4.99747e-09 -1.51926e-09 -6.17171e-09 -10.2786 0.731801 -0.0259123 4.99748e-09 -1.51926e-09 -6.17172e-09 -2.22167 -0.733487 0.20892 -2.03217e-16 0.0 -3.88251e-19 6.76676 -29.5798 7.65437 0.0633068 18.8464 0.93345 -2.31843 -15.6197 -5.80205 2.03217e-16 0.0 3.88251e-19 -6.11861 -78.5536 -6.6215 3.95089 77.9634 -4.59141 1.22945 -4.47008 3.62575
